<svg width="543" height="69" viewBox="0 0 543 69" fill="none" xmlns="http://www.w3.org/2000/svg">
<path d="M0 67.398L39.762 1.598H61.852C70.876 1.598 80.37 5.922 80.37 17.766C80.37 29.704 70.782 40.326 53.58 42.864L55.46 67.398H39.762L38.54 42.958H31.114L16.356 67.398H0ZM39.292 29.422H48.41C58.374 29.422 64.39 25.098 64.39 20.398C64.39 17.484 62.698 15.604 58.374 15.604H47.658L39.292 29.422Z" fill="white"/>
<path d="M61.827 67.398L101.589 1.598H140.787V15.604H109.391L103.093 26.038H126.123V40.044H94.633L86.643 53.392H109.767V67.398H61.827Z" fill="white"/>
<path d="M116.586 67.398L156.348 1.598H195.546V15.604H164.15L157.852 26.038H180.882V40.044H149.392L141.402 53.392H164.526V67.398H116.586Z" fill="white"/>
<path d="M171.344 67.398L211.106 1.598H232.256C241.28 1.598 250.774 5.922 250.774 17.766C250.774 31.96 238.178 44.368 215.994 44.368H201.612L187.7 67.398H171.344ZM210.072 30.362H218.814C228.778 30.362 234.794 25.568 234.794 20.398C234.794 17.484 233.102 15.604 228.778 15.604H219.002L210.072 30.362Z" fill="white"/>
<path d="M267.398 68.996C257.152 68.996 245.496 64.578 245.496 48.974C245.496 30.174 267.022 0 291.086 0C301.238 0 312.894 4.418 312.894 20.022C312.894 38.822 291.368 68.996 267.398 68.996ZM261.57 47.564C261.57 53.486 265.048 55.366 268.808 55.366C281.31 55.366 296.82 30.55 296.82 21.432C296.82 15.51 293.342 13.63 289.676 13.63C277.174 13.63 261.57 38.446 261.57 47.564Z" fill="white"/>
<path d="M297.534 67.398L307.78 50.572H325.358L315.206 67.398H297.534Z" fill="white"/>
<path d="M325.615 67.398L365.377 1.598H382.579C393.389 1.598 404.481 7.05 404.481 22.184C404.481 40.796 383.801 67.398 352.499 67.398H325.615ZM350.337 53.392H356.165C375.811 53.392 388.031 34.498 388.031 24.628C388.031 17.86 383.895 15.604 378.913 15.604H373.273L350.337 53.392Z" fill="white"/>
<path d="M390.012 67.398L429.774 1.598H468.972V15.604H437.576L431.278 26.038H454.308V40.044H422.818L414.828 53.392H437.952V67.398H390.012Z" fill="white"/>
<path d="M460.281 67.398L478.329 1.598H494.121L481.619 48.128L522.603 1.598H542.249L480.867 67.398H460.281Z" fill="white"/>
</svg>
